<svg width="270" height="27" viewBox="0 0 270 27" fill="none" xmlns="http://www.w3.org/2000/svg">
<path d="M13.0472 0.1875L17.2499 7.40303L25.411 9.17028L19.8473 15.397L20.6884 23.7047L13.0472 20.3375L5.40603 23.7047L6.24719 15.397L0.683507 9.17028L8.84458 7.40303L13.0472 0.1875Z" fill="#FFBE0B"/>
<path d="M46.0472 0.1875L50.2499 7.40303L58.411 9.17028L52.8473 15.397L53.6884 23.7047L46.0472 20.3375L38.406 23.7047L39.2472 15.397L33.6835 9.17028L41.8446 7.40303L46.0472 0.1875Z" fill="#FFBE0B"/>
<path d="M79.0472 0.1875L83.2499 7.40303L91.411 9.17028L85.8473 15.397L86.6884 23.7047L79.0472 20.3375L71.406 23.7047L72.2472 15.397L66.6835 9.17028L74.8446 7.40303L79.0472 0.1875Z" fill="#FFBE0B"/>
<path d="M112.047 0.1875L116.25 7.40303L124.411 9.17028L118.847 15.397L119.688 23.7047L112.047 20.3375L104.406 23.7047L105.247 15.397L99.6835 9.17028L107.845 7.40303L112.047 0.1875Z" fill="#FFBE0B"/>
<path d="M145.047 0.1875L149.25 7.40303L157.411 9.17028L151.847 15.397L152.688 23.7047L145.047 20.3375L137.406 23.7047L138.247 15.397L132.684 9.17028L140.845 7.40303L145.047 0.1875Z" fill="url(#paint0_linear_7_220)"/>
<path d="M175.863 17.5195C177.218 16.4315 178.279 15.5408 179.047 14.8475C179.815 14.1435 180.461 13.4128 180.983 12.6555C181.517 11.8875 181.783 11.1355 181.783 10.3995C181.783 9.70617 181.613 9.16217 181.271 8.7675C180.941 8.36217 180.402 8.1595 179.655 8.1595C178.93 8.1595 178.365 8.38883 177.959 8.8475C177.565 9.2955 177.351 9.89817 177.319 10.6555H175.911C175.954 9.46083 176.317 8.53817 176.999 7.8875C177.682 7.23683 178.562 6.9115 179.639 6.9115C180.738 6.9115 181.607 7.2155 182.247 7.8235C182.898 8.4315 183.223 9.26883 183.223 10.3355C183.223 11.2208 182.957 12.0848 182.423 12.9275C181.901 13.7595 181.303 14.4955 180.631 15.1355C179.959 15.7648 179.101 16.5008 178.055 17.3435H183.559V18.5595H175.863V17.5195ZM185.242 12.7835C185.242 10.9488 185.541 9.5195 186.138 8.4955C186.736 7.46083 187.781 6.9435 189.274 6.9435C190.757 6.9435 191.797 7.46083 192.394 8.4955C192.992 9.5195 193.29 10.9488 193.29 12.7835C193.29 14.6502 192.992 16.1008 192.394 17.1355C191.797 18.1702 190.757 18.6875 189.274 18.6875C187.781 18.6875 186.736 18.1702 186.138 17.1355C185.541 16.1008 185.242 14.6502 185.242 12.7835ZM191.85 12.7835C191.85 11.8555 191.786 11.0715 191.658 10.4315C191.541 9.78083 191.29 9.25817 190.906 8.8635C190.533 8.46883 189.989 8.2715 189.274 8.2715C188.549 8.2715 187.994 8.46883 187.61 8.8635C187.237 9.25817 186.986 9.78083 186.858 10.4315C186.741 11.0715 186.682 11.8555 186.682 12.7835C186.682 13.7435 186.741 14.5488 186.858 15.1995C186.986 15.8502 187.237 16.3728 187.61 16.7675C187.994 17.1622 188.549 17.3595 189.274 17.3595C189.989 17.3595 190.533 17.1622 190.906 16.7675C191.29 16.3728 191.541 15.8502 191.658 15.1995C191.786 14.5488 191.85 13.7435 191.85 12.7835ZM195.257 10.0315C195.332 9.05017 195.711 8.28217 196.393 7.7275C197.076 7.17283 197.961 6.8955 199.049 6.8955C199.775 6.8955 200.399 7.02883 200.921 7.2955C201.455 7.5515 201.855 7.9035 202.121 8.3515C202.399 8.7995 202.537 9.30617 202.537 9.8715C202.537 10.5328 202.345 11.1035 201.961 11.5835C201.588 12.0635 201.097 12.3728 200.489 12.5115V12.5915C201.183 12.7622 201.732 13.0982 202.137 13.5995C202.543 14.1008 202.745 14.7568 202.745 15.5675C202.745 16.1755 202.607 16.7248 202.329 17.2155C202.052 17.6955 201.636 18.0742 201.081 18.3515C200.527 18.6288 199.86 18.7675 199.081 18.7675C197.951 18.7675 197.023 18.4742 196.297 17.8875C195.572 17.2902 195.167 16.4475 195.081 15.3595H196.489C196.564 15.9995 196.825 16.5222 197.273 16.9275C197.721 17.3328 198.319 17.5355 199.065 17.5355C199.812 17.5355 200.377 17.3435 200.761 16.9595C201.156 16.5648 201.353 16.0582 201.353 15.4395C201.353 14.6395 201.087 14.0635 200.553 13.7115C200.02 13.3595 199.215 13.1835 198.137 13.1835H197.769V11.9675H198.153C199.135 11.9568 199.876 11.7968 200.377 11.4875C200.879 11.1675 201.129 10.6768 201.129 10.0155C201.129 9.45017 200.943 8.99683 200.569 8.6555C200.207 8.31417 199.684 8.1435 199.001 8.1435C198.34 8.1435 197.807 8.31417 197.401 8.6555C196.996 8.99683 196.756 9.4555 196.681 10.0315H195.257ZM210.673 11.3435C210.929 10.8422 211.291 10.4528 211.761 10.1755C212.241 9.89817 212.822 9.7595 213.505 9.7595V11.2635H213.121C211.489 11.2635 210.673 12.1488 210.673 13.9195V18.6875H209.217V9.9195H210.673V11.3435ZM223.185 13.9675C223.185 14.2448 223.169 14.5382 223.137 14.8475H216.129C216.183 15.7115 216.476 16.3888 217.009 16.8795C217.553 17.3595 218.209 17.5995 218.977 17.5995C219.607 17.5995 220.129 17.4555 220.545 17.1675C220.972 16.8688 221.271 16.4742 221.441 15.9835H223.009C222.775 16.8262 222.305 17.5142 221.601 18.0475C220.897 18.5702 220.023 18.8315 218.977 18.8315C218.145 18.8315 217.399 18.6448 216.737 18.2715C216.087 17.8982 215.575 17.3702 215.201 16.6875C214.828 15.9942 214.641 15.1942 214.641 14.2875C214.641 13.3808 214.823 12.5862 215.185 11.9035C215.548 11.2208 216.055 10.6982 216.705 10.3355C217.367 9.96217 218.124 9.7755 218.977 9.7755C219.809 9.7755 220.545 9.95683 221.185 10.3195C221.825 10.6822 222.316 11.1835 222.657 11.8235C223.009 12.4528 223.185 13.1675 223.185 13.9675ZM221.681 13.6635C221.681 13.1088 221.559 12.6342 221.313 12.2395C221.068 11.8342 220.732 11.5302 220.305 11.3275C219.889 11.1142 219.425 11.0075 218.913 11.0075C218.177 11.0075 217.548 11.2422 217.025 11.7115C216.513 12.1808 216.22 12.8315 216.145 13.6635H221.681ZM228.371 17.3435L231.091 9.9195H232.643L229.203 18.6875H227.507L224.067 9.9195H225.635L228.371 17.3435ZM234.828 8.4955C234.551 8.4955 234.316 8.3995 234.124 8.2075C233.932 8.0155 233.836 7.78083 233.836 7.5035C233.836 7.22617 233.932 6.9915 234.124 6.7995C234.316 6.6075 234.551 6.5115 234.828 6.5115C235.095 6.5115 235.319 6.6075 235.5 6.7995C235.692 6.9915 235.788 7.22617 235.788 7.5035C235.788 7.78083 235.692 8.0155 235.5 8.2075C235.319 8.3995 235.095 8.4955 234.828 8.4955ZM235.532 9.9195V18.6875H234.076V9.9195H235.532ZM246.014 13.9675C246.014 14.2448 245.998 14.5382 245.966 14.8475H238.958C239.011 15.7115 239.304 16.3888 239.838 16.8795C240.382 17.3595 241.038 17.5995 241.806 17.5995C242.435 17.5995 242.958 17.4555 243.374 17.1675C243.8 16.8688 244.099 16.4742 244.27 15.9835H245.838C245.603 16.8262 245.134 17.5142 244.43 18.0475C243.726 18.5702 242.851 18.8315 241.806 18.8315C240.974 18.8315 240.227 18.6448 239.566 18.2715C238.915 17.8982 238.403 17.3702 238.03 16.6875C237.656 15.9942 237.47 15.1942 237.47 14.2875C237.47 13.3808 237.651 12.5862 238.014 11.9035C238.376 11.2208 238.883 10.6982 239.534 10.3355C240.195 9.96217 240.952 9.7755 241.806 9.7755C242.638 9.7755 243.374 9.95683 244.014 10.3195C244.654 10.6822 245.144 11.1835 245.486 11.8235C245.838 12.4528 246.014 13.1675 246.014 13.9675ZM244.51 13.6635C244.51 13.1088 244.387 12.6342 244.142 12.2395C243.896 11.8342 243.56 11.5302 243.134 11.3275C242.718 11.1142 242.254 11.0075 241.742 11.0075C241.006 11.0075 240.376 11.2422 239.854 11.7115C239.342 12.1808 239.048 12.8315 238.974 13.6635H244.51ZM259.615 9.9195L256.879 18.6875H255.375L253.263 11.7275L251.151 18.6875H249.647L246.895 9.9195H248.383L250.399 17.2795L252.575 9.9195H254.063L256.191 17.2955L258.175 9.9195H259.615ZM264.164 18.8315C263.492 18.8315 262.89 18.7195 262.356 18.4955C261.823 18.2608 261.402 17.9408 261.092 17.5355C260.783 17.1195 260.612 16.6448 260.58 16.1115H262.084C262.127 16.5488 262.33 16.9062 262.692 17.1835C263.066 17.4608 263.551 17.5995 264.148 17.5995C264.703 17.5995 265.14 17.4768 265.46 17.2315C265.78 16.9862 265.94 16.6768 265.94 16.3035C265.94 15.9195 265.77 15.6368 265.428 15.4555C265.087 15.2635 264.559 15.0768 263.844 14.8955C263.194 14.7248 262.66 14.5542 262.244 14.3835C261.839 14.2022 261.487 13.9408 261.188 13.5995C260.9 13.2475 260.756 12.7888 260.756 12.2235C260.756 11.7755 260.89 11.3648 261.156 10.9915C261.423 10.6182 261.802 10.3248 262.292 10.1115C262.783 9.8875 263.343 9.7755 263.972 9.7755C264.943 9.7755 265.727 10.0208 266.324 10.5115C266.922 11.0022 267.242 11.6742 267.284 12.5275H265.828C265.796 12.0688 265.61 11.7008 265.268 11.4235C264.938 11.1462 264.49 11.0075 263.924 11.0075C263.402 11.0075 262.986 11.1195 262.676 11.3435C262.367 11.5675 262.212 11.8608 262.212 12.2235C262.212 12.5115 262.303 12.7515 262.484 12.9435C262.676 13.1248 262.911 13.2742 263.188 13.3915C263.476 13.4982 263.871 13.6208 264.372 13.7595C265.002 13.9302 265.514 14.1008 265.908 14.2715C266.303 14.4315 266.639 14.6768 266.916 15.0075C267.204 15.3382 267.354 15.7702 267.364 16.3035C267.364 16.7835 267.231 17.2155 266.964 17.5995C266.698 17.9835 266.319 18.2875 265.828 18.5115C265.348 18.7248 264.794 18.8315 264.164 18.8315Z" fill="black"/>
<defs>
<linearGradient id="paint0_linear_7_220" x1="132.047" y1="9.1875" x2="158.047" y2="9.6875" gradientUnits="userSpaceOnUse">
<stop stop-color="#FFBE0B"/>
<stop offset="0.478967" stop-color="#FFBE0B"/>
<stop offset="0.479067" stop-color="#FFBE0B" stop-opacity="0.0108695"/>
<stop offset="0.479167" stop-color="#FFBE0B" stop-opacity="0"/>
<stop offset="0.479167" stop-color="#FFBE0B" stop-opacity="0"/>
<stop offset="0.479167" stop-color="#FFBE0B" stop-opacity="0"/>
</linearGradient>
</defs>
</svg>
